<svg version="1" xmlns="http://www.w3.org/2000/svg" width="933.333" height="933.333" viewBox="0 0 700.000000 700.000000"><path d="M322.7 12c-99.2 8.9-186.9 58-245.6 137.3-34.7 46.8-55.7 99.7-63.8 160.3-2.1 16.5-2.4 61.7-.5 77.9C20.8 453 44.9 511.2 85 562c17.8 22.5 51.5 53.6 76 70 19 12.7 46.7 27.2 67.7 35.4 49.2 19.2 107.1 26.4 161.3 20 113.2-13.2 212.8-83.2 264.3-186 17.7-35.3 29-74.4 33.9-116.9 1.8-16.2 1.5-54.9-.6-72.5-12-101.1-66.7-189.7-151.9-245.8-42.5-28-89.8-45.4-143.7-52.7-13.7-1.9-55.2-2.7-69.3-1.5z"/></svg>