<svg width="131" height="30" viewBox="0 0 131 30" fill="none" xmlns="http://www.w3.org/2000/svg">
<circle cx="15" cy="15" r="15" fill="#1DC6D1"/>
<path d="M16.824 10.576V16.312C16.824 17.2 16.572 17.884 16.068 18.364C15.572 18.844 14.9 19.084 14.052 19.084C13.164 19.084 12.452 18.832 11.916 18.328C11.38 17.824 11.112 17.108 11.112 16.18H13.152C13.152 16.532 13.224 16.8 13.368 16.984C13.512 17.16 13.72 17.248 13.992 17.248C14.24 17.248 14.432 17.168 14.568 17.008C14.704 16.848 14.772 16.616 14.772 16.312V10.576H16.824Z" fill="white"/>
<path d="M47.028 10.172V16.864C47.028 17.9 46.734 18.698 46.146 19.258C45.5673 19.818 44.7833 20.098 43.794 20.098C42.758 20.098 41.9273 19.804 41.302 19.216C40.6767 18.628 40.364 17.7927 40.364 16.71H42.744C42.744 17.1207 42.828 17.4333 42.996 17.648C43.164 17.8533 43.4067 17.956 43.724 17.956C44.0133 17.956 44.2373 17.8627 44.396 17.676C44.5547 17.4893 44.634 17.2187 44.634 16.864V10.172H47.028ZM52.3138 10.172V16.052C52.3138 16.64 52.4584 17.0927 52.7478 17.41C53.0371 17.7273 53.4618 17.886 54.0218 17.886C54.5818 17.886 55.0111 17.7273 55.3098 17.41C55.6084 17.0927 55.7578 16.64 55.7578 16.052V10.172H58.1518V16.038C58.1518 16.9153 57.9651 17.6573 57.5918 18.264C57.2184 18.8707 56.7144 19.328 56.0798 19.636C55.4544 19.944 54.7544 20.098 53.9798 20.098C53.2051 20.098 52.5098 19.9487 51.8938 19.65C51.2871 19.342 50.8064 18.8847 50.4518 18.278C50.0971 17.662 49.9198 16.9153 49.9198 16.038V10.172H52.3138ZM63.2268 10.172V20H60.8328V10.172H63.2268ZM65.5557 15.072C65.5557 14.1013 65.7658 13.238 66.1858 12.482C66.6058 11.7167 67.1891 11.124 67.9358 10.704C68.6918 10.2747 69.5458 10.06 70.4978 10.06C71.6644 10.06 72.6631 10.368 73.4938 10.984C74.3244 11.6 74.8798 12.44 75.1598 13.504H72.5278C72.3318 13.0933 72.0518 12.7807 71.6878 12.566C71.3331 12.3513 70.9271 12.244 70.4698 12.244C69.7324 12.244 69.1351 12.5007 68.6778 13.014C68.2204 13.5273 67.9918 14.2133 67.9918 15.072C67.9918 15.9307 68.2204 16.6167 68.6778 17.13C69.1351 17.6433 69.7324 17.9 70.4698 17.9C70.9271 17.9 71.3331 17.7927 71.6878 17.578C72.0518 17.3633 72.3318 17.0507 72.5278 16.64H75.1598C74.8798 17.704 74.3244 18.544 73.4938 19.16C72.6631 19.7667 71.6644 20.07 70.4978 20.07C69.5458 20.07 68.6918 19.86 67.9358 19.44C67.1891 19.0107 66.6058 18.418 66.1858 17.662C65.7658 16.906 65.5557 16.0427 65.5557 15.072ZM80.0198 12.09V14.078H83.2258V15.926H80.0198V18.082H83.6458V20H77.6258V10.172H83.6458V12.09H80.0198ZM89.882 10.172C90.918 10.172 91.8234 10.3773 92.598 10.788C93.3727 11.1987 93.97 11.7773 94.39 12.524C94.8194 13.2613 95.034 14.1153 95.034 15.086C95.034 16.0473 94.8194 16.9013 94.39 17.648C93.97 18.3947 93.368 18.9733 92.584 19.384C91.8094 19.7947 90.9087 20 89.882 20H86.2V10.172H89.882ZM89.728 17.928C90.6334 17.928 91.338 17.6807 91.842 17.186C92.346 16.6913 92.598 15.9913 92.598 15.086C92.598 14.1807 92.346 13.476 91.842 12.972C91.338 12.468 90.6334 12.216 89.728 12.216H88.594V17.928H89.728ZM103.49 18.264H99.8219L99.2339 20H96.7279L100.284 10.172H103.056L106.612 20H104.078L103.49 18.264ZM102.874 16.416L101.656 12.818L100.452 16.416H102.874ZM111.088 10.172V20H108.694V10.172H111.088ZM116.217 18.152H119.353V20H113.823V10.172H116.217V18.152ZM129.923 10.172L126.521 16.752V20H124.127V16.752L120.725 10.172H123.441L125.345 14.288L127.235 10.172H129.923Z" fill="#11BCC7"/>
</svg>
